<svg xmlns="http://www.w3.org/2000/svg" xmlns:xlink="http://www.w3.org/1999/xlink" width="500" zoomAndPan="magnify" viewBox="0 0 375 374.999991" height="500" preserveAspectRatio="xMidYMid meet" version="1.0"><defs><g/><clipPath id="adb7bc052b"><path d="M 63.992188 37 L 311 37 L 311 230 L 63.992188 230 Z M 63.992188 37 " clip-rule="nonzero"/></clipPath></defs><g clip-path="url(#adb7bc052b)"><path fill="#5ce1e6" d="M 182.476562 200.738281 Z M 132.242188 229.144531 L 142.632812 193.460938 L 149.910156 183.761719 L 152.679688 185.148438 L 149.214844 196.578125 L 151.296875 197.621094 L 159.609375 188.613281 L 162.035156 189.996094 L 157.53125 202.46875 L 132.242188 228.796875 Z M 167.578125 207.664062 L 182.128906 200.738281 C 186.980469 203.507812 192.867188 205.242188 198.757812 205.242188 C 207.070312 205.242188 214.695312 202.121094 220.582031 197.273438 C 230.285156 205.585938 242.753906 210.785156 256.265625 210.785156 C 286.058594 210.785156 310.3125 186.53125 310.3125 156.738281 C 310.3125 127.292969 286.753906 103.386719 257.652344 102.695312 C 258.34375 98.882812 259.039062 95.074219 259.039062 91.261719 C 259.039062 61.46875 234.789062 37.21875 204.992188 37.21875 C 179.355469 37.21875 157.878906 54.886719 152.335938 78.789062 C 146.445312 73.59375 138.476562 70.128906 129.816406 70.128906 C 111.109375 70.128906 95.863281 85.371094 95.863281 104.082031 C 95.863281 105.8125 95.863281 107.199219 96.210938 108.929688 C 77.15625 114.472656 63.300781 131.796875 63.300781 152.582031 C 63.300781 177.527344 83.738281 197.964844 108.683594 197.964844 L 137.089844 197.964844 L 131.894531 229.144531 L 160.648438 204.894531 L 163.074219 197.964844 L 163.765625 197.964844 Z M 156.144531 145.652344 C 166.191406 122.09375 179.355469 101.308594 208.457031 95.417969 C 216.773438 122.441406 208.113281 145.308594 190.441406 166.09375 C 192.867188 170.941406 194.945312 176.140625 194.253906 180.988281 C 193.214844 187.574219 188.363281 190.691406 183.515625 194.847656 L 179.011719 198.660156 L 167.578125 208.011719 L 167.578125 185.148438 L 162.035156 188.613281 L 151.640625 182.375 L 151.640625 175.445312 L 131.203125 187.574219 L 135.011719 163.320312 C 136.050781 156.738281 136.398438 153.273438 142.632812 149.464844 C 147.136719 146.691406 151.988281 146.347656 156.839844 146 Z M 156.144531 145.652344 " fill-opacity="1" fill-rule="evenodd"/></g><path fill="#d9d9d9" d="M 205.6875 101.308594 L 201.875 107.542969 C 206.378906 122.789062 201.183594 140.457031 189.402344 159.855469 C 203.609375 142.1875 210.882812 123.480469 205.339844 100.960938 Z M 205.6875 101.308594 " fill-opacity="1" fill-rule="evenodd"/><g fill="#5ce1e6" fill-opacity="1"><g transform="translate(7.217481, 301.030752)"><g><path d="M 14.140625 -23.152344 L 14.140625 -25.652344 C 14.140625 -34.101562 15.015625 -39.417969 20.960938 -39.417969 L 21.585938 -39.417969 C 26.277344 -39.417969 27.21875 -35.664062 27.21875 -30.03125 L 39.105469 -30.03125 L 39.105469 -32.472656 C 39.105469 -45.050781 32.910156 -49.679688 20.960938 -49.679688 C 7.820312 -49.679688 2.066406 -42.546875 2.066406 -25.652344 L 2.066406 -23.152344 C 2.066406 -6.257812 7.820312 0.875 20.960938 0.875 C 32.910156 0.875 39.105469 -3.753906 39.105469 -16.332031 L 39.105469 -16.894531 L 27.21875 -16.894531 C 27.21875 -12.515625 25.777344 -9.386719 21.585938 -9.386719 L 20.960938 -9.386719 C 15.015625 -9.386719 14.140625 -14.703125 14.140625 -23.152344 Z M 14.140625 -23.152344 "/></g></g></g><g fill="#5ce1e6" fill-opacity="1"><g transform="translate(48.509989, 301.030752)"><g><path d="M 3.003906 0 L 14.515625 0 L 14.515625 -50.054688 L 3.003906 -50.054688 Z M 3.003906 0 "/></g></g></g><g fill="#5ce1e6" fill-opacity="1"><g transform="translate(66.028034, 301.030752)"><g><path d="M 17.519531 0.875 C 28.46875 0.875 33.472656 -5.632812 33.472656 -15.328125 L 33.472656 -17.832031 C 33.472656 -27.53125 28.46875 -34.039062 17.519531 -34.039062 C 6.570312 -34.039062 1.5625 -27.53125 1.5625 -17.832031 L 1.5625 -15.328125 C 1.5625 -5.632812 6.570312 0.875 17.519531 0.875 Z M 17.519531 -9.011719 C 14.390625 -9.011719 13.015625 -11.261719 13.015625 -15.328125 L 13.015625 -17.832031 C 13.015625 -21.898438 14.390625 -24.152344 17.519531 -24.152344 C 20.648438 -24.152344 22.023438 -21.898438 22.023438 -17.832031 L 22.023438 -15.328125 C 22.023438 -11.261719 20.648438 -9.011719 17.519531 -9.011719 Z M 17.519531 -9.011719 "/></g></g></g><g fill="#5ce1e6" fill-opacity="1"><g transform="translate(101.064105, 301.030752)"><g><path d="M 2.753906 -33.160156 L 2.753906 -10.949219 C 2.753906 -5.003906 5.253906 0.875 13.078125 0.875 C 18.019531 0.875 21.398438 -1.125 23.527344 -4.066406 L 24.339844 0 L 34.726562 0 L 34.101562 -9.386719 L 34.101562 -33.160156 L 22.585938 -33.160156 L 22.585938 -11.574219 C 21.960938 -10.636719 20.273438 -9.011719 17.769531 -9.011719 C 14.640625 -9.011719 14.265625 -11.261719 14.265625 -12.828125 L 14.265625 -33.160156 Z M 2.753906 -33.160156 "/></g></g></g><g fill="#5ce1e6" fill-opacity="1"><g transform="translate(138.289922, 301.030752)"><g><path d="M 14.328125 -34.039062 C 5.253906 -34.039062 2.128906 -27.53125 2.128906 -17.832031 L 2.128906 -15.328125 C 2.128906 -5.632812 5.253906 0.875 14.328125 0.875 C 18.832031 0.875 21.710938 -1.0625 23.589844 -3.816406 L 24.339844 0 L 34.726562 0 L 34.101562 -9.386719 L 34.101562 -50.054688 L 22.585938 -50.054688 L 22.585938 -30.660156 C 20.710938 -32.660156 18.019531 -34.039062 14.328125 -34.039062 Z M 22.585938 -11.574219 C 21.960938 -10.636719 20.273438 -9.011719 17.769531 -9.011719 C 14.640625 -9.011719 13.578125 -11.261719 13.578125 -15.328125 L 13.578125 -17.832031 C 13.578125 -21.898438 14.640625 -24.152344 17.769531 -24.152344 C 20.273438 -24.152344 21.960938 -22.523438 22.585938 -21.585938 Z M 22.585938 -11.574219 "/></g></g></g><g fill="#d9d9d9" fill-opacity="1"><g transform="translate(175.515909, 301.030752)"><g><path d="M 39.855469 -23.152344 L 39.855469 -25.652344 C 39.855469 -42.546875 34.101562 -48.804688 18.769531 -48.804688 L 3.128906 -48.804688 L 3.128906 0 L 18.769531 0 C 34.101562 0 39.855469 -6.257812 39.855469 -23.152344 Z M 15.015625 -10.261719 L 15.015625 -38.542969 L 18.144531 -38.542969 C 26.277344 -38.542969 27.78125 -34.101562 27.78125 -25.652344 L 27.78125 -23.152344 C 27.78125 -14.703125 26.277344 -10.261719 18.144531 -10.261719 Z M 15.015625 -10.261719 "/></g></g></g><g fill="#d9d9d9" fill-opacity="1"><g transform="translate(217.434059, 301.030752)"><g><path d="M 22.523438 0 L 32.910156 0 L 32.285156 -9.386719 L 32.285156 -21.273438 C 32.285156 -29.46875 28.84375 -34.039062 17.519531 -34.039062 C 6.257812 -34.039062 2.816406 -28.78125 2.816406 -22.773438 L 2.816406 -22.210938 L 13.640625 -22.210938 C 13.640625 -23.777344 14.390625 -25.402344 17.207031 -25.402344 C 19.710938 -25.402344 20.648438 -24.277344 20.773438 -21.898438 L 13.765625 -20.773438 C 6.382812 -19.648438 1.5625 -17.207031 1.5625 -10.011719 L 1.5625 -9.386719 C 1.5625 -4.066406 4.066406 0.875 11.886719 0.875 C 16.269531 0.875 19.585938 -0.6875 21.898438 -3.128906 Z M 16.269531 -8.382812 C 13.890625 -8.382812 13.015625 -9.761719 13.015625 -11.074219 L 13.015625 -11.449219 C 13.015625 -12.953125 13.578125 -14.140625 16.269531 -14.578125 L 20.773438 -15.265625 L 20.773438 -10.199219 C 19.835938 -9.324219 18.207031 -8.382812 16.269531 -8.382812 Z M 16.269531 -8.382812 "/></g></g></g><g fill="#d9d9d9" fill-opacity="1"><g transform="translate(252.470129, 301.030752)"><g><path d="M 34.476562 0 L 34.476562 -22.210938 C 34.476562 -28.15625 31.972656 -34.039062 24.152344 -34.039062 C 19.207031 -34.039062 15.828125 -31.972656 13.640625 -29.03125 L 12.890625 -33.160156 L 2.503906 -33.160156 L 3.128906 -23.777344 L 3.128906 0 L 14.640625 0 L 14.640625 -21.585938 C 15.265625 -22.523438 16.957031 -24.152344 19.457031 -24.152344 C 22.585938 -24.152344 22.960938 -21.898438 22.960938 -20.335938 L 22.960938 0 Z M 34.476562 0 "/></g></g></g><g fill="#d9d9d9" fill-opacity="1"><g transform="translate(289.695947, 301.030752)"><g><path d="M 17.457031 -33.160156 L 17.457031 -42.546875 L 5.945312 -42.546875 L 5.945312 -33.160156 L 0.9375 -33.160156 L 0.9375 -23.152344 L 5.945312 -23.152344 L 5.945312 -12.199219 C 5.945312 -2.503906 11.261719 0.875 19.207031 0.875 C 22.335938 0.875 24.214844 0.3125 24.777344 0 L 24.777344 -9.386719 C 24.464844 -9.261719 22.898438 -9.011719 21.898438 -9.011719 C 19.269531 -9.011719 17.457031 -9.699219 17.457031 -13.453125 L 17.457031 -23.152344 L 25.402344 -23.152344 L 25.402344 -33.160156 Z M 17.457031 -33.160156 "/></g></g></g><g fill="#d9d9d9" fill-opacity="1"><g transform="translate(317.224298, 301.030752)"><g><path d="M 3.003906 0 L 14.515625 0 L 14.515625 -33.160156 L 3.003906 -33.160156 Z M 14.703125 -48.804688 L 2.816406 -48.804688 L 2.816406 -36.914062 L 14.703125 -36.914062 Z M 14.703125 -48.804688 "/></g></g></g><g fill="#d9d9d9" fill-opacity="1"><g transform="translate(334.742343, 301.030752)"><g><path d="M 13.015625 -15.328125 L 13.015625 -17.832031 C 13.015625 -21.898438 14.078125 -24.152344 17.144531 -24.152344 C 19.394531 -24.152344 20.773438 -22.898438 20.773438 -20.023438 L 31.597656 -20.023438 L 31.597656 -21.523438 C 31.597656 -29.40625 26.527344 -34.039062 16.894531 -34.039062 C 6.195312 -34.039062 1.5625 -27.53125 1.5625 -17.832031 L 1.5625 -15.328125 C 1.5625 -5.632812 6.195312 0.875 16.894531 0.875 C 26.527344 0.875 31.597656 -3.753906 31.597656 -11.011719 L 31.597656 -12.515625 L 20.773438 -12.515625 C 20.773438 -10.324219 19.394531 -9.011719 17.144531 -9.011719 C 14.078125 -9.011719 13.015625 -11.261719 13.015625 -15.328125 Z M 13.015625 -15.328125 "/></g></g></g></svg>